{
  "source": "C:\\Users\\Peter\\Desktop\\stuff\\MIUN\\quantitative_research\\video_compression\\videos\\BVI-HD\\BVI-HD_CDVL_videos\\ORIG\\Hamster_1920x1080_60fps.mp4",
  "output": "C:\\Users\\Peter\\Desktop\\stuff\\MIUN\\quantitative_research\\video_compression\\compressed_videos\\BVI-HD\\av1\\4\\Hamster_1920x1080_60fps_av1.mkv",
  "codec": "av1",
  "ok": "Input #0, mov,mp4,m4a,3gp,3g2,mj2, from 'C:\\Users\\Peter\\Desktop\\stuff\\MIUN\\quantitative_research\\video_compression\\videos\\BVI-HD\\BVI-HD_CDVL_videos\\ORIG\\Hamster_1920x1080_60fps.mp4':\n  Metadata:\n    major_brand     : isom\n    minor_version   : 512\n    compatible_brands: isomiso2avc1mp41\n    encoder         : Lavf54.28.101\n  Duration: 00:00:05.00, start: 0.000000, bitrate: 208485 kb/s\n  Stream #0:0[0x1](und): Video: h264 (High 4:4:4 Predictive) (avc1 / 0x31637661), yuv420p(progressive), 1920x1080, 208481 kb/s, 60 fps, 60 tbr, 60 tbn (default)\n    Metadata:\n      handler_name    : VideoHandler\n      vendor_id       : [0][0][0][0]\n[out#0/matroska @ 000002910dca9100] Codec AVOption b:a (set bitrate (in bits/s)) has not been used for any stream. The most likely reason is either wrong type (e.g. a video option with no video streams) or that it is a private option of some decoder which was not actually used for any stream.\nStream mapping:\n  Stream #0:0 -> #0:0 (h264 (native) -> av1 (libsvtav1))\nPress [q] to stop, [?] for help\nSvt[info]: -------------------------------------------\nSvt[info]: SVT [version]:\tSVT-AV1 Encoder Lib v3.1.0-19-g6ecfe8ec\nSvt[info]: SVT [build]  :\tGCC 15.2.0\t 64 bit\nSvt[info]: LIB Build date: Aug 17 2025 11:37:13\nSvt[info]: -------------------------------------------\nSvt[info]: Level of Parallelism: 5\nSvt[info]: Number of PPCS 93\nSvt[info]: [asm level on system : up to avx2]\nSvt[info]: [asm level selected : up to avx2]\nSvt[info]: -------------------------------------------\nSvt[info]: SVT [config]: main profile\ttier (auto)\tlevel (auto)\nSvt[info]: SVT [config]: width / height / fps numerator / fps denominator \t\t: 1920 / 1080 / 60 / 1\nSvt[info]: SVT [config]: bit-depth / color format \t\t\t\t\t: 8 / YUV420\nSvt[info]: SVT [config]: preset / tune / pred struct \t\t\t\t\t: 4 / PSNR / random access\nSvt[info]: SVT [config]: gop size / mini-gop size / key-frame type \t\t\t: 321 / 16 / key frame\nSvt[info]: SVT [config]: BRC mode / target bitrate (kbps)\t\t\t\t: VBR / 4000 \nSvt[info]: SVT [config]: AQ mode / Variance Boost \t\t\t\t\t: 2 / 0\nSvt[info]: SVT [config]: sharpness / luminance-based QP bias \t\t\t\t: 0 / 0\nSvt[info]: SVT [config]: QP scale compress strength \t\t\t\t\t: 0\nSvt[info]: -------------------------------------------\nOutput #0, matroska, to 'C:\\Users\\Peter\\Desktop\\stuff\\MIUN\\quantitative_research\\video_compression\\compressed_videos\\BVI-HD\\av1\\4\\Hamster_1920x1080_60fps_av1.mkv':\n  Metadata:\n    major_brand     : isom\n    minor_version   : 512\n    compatible_brands: isomiso2avc1mp41\n    encoder         : Lavf62.3.100\n  Stream #0:0(und): Video: av1 (AV01 / 0x31305641), yuv420p(tv, progressive), 1920x1080, q=2-31, 4000 kb/s, 60 fps, 1k tbn (default)\n    Metadata:\n      encoder         : Lavc62.11.100 libsvtav1\n      handler_name    : VideoHandler\n      vendor_id       : [0][0][0][0]\n    Side data:\n      cpb: bitrate max/min/avg: 0/0/4000000 buffer size: 4000000 vbv_delay: N/A\nframe=    0 fps=0.0 q=0.0 size=       0KiB time=N/A bitrate=N/A speed=N/A elapsed=0:00:01.15    \nframe=    0 fps=0.0 q=0.0 size=       0KiB time=N/A bitrate=N/A speed=N/A elapsed=0:00:01.91    \nframe=    0 fps=0.0 q=0.0 size=       0KiB time=N/A bitrate=N/A speed=N/A elapsed=0:00:02.53    \nframe=    0 fps=0.0 q=0.0 size=       0KiB time=N/A bitrate=N/A speed=N/A elapsed=0:00:03.08    \nframe=    0 fps=0.0 q=0.0 size=       0KiB time=N/A bitrate=N/A speed=N/A elapsed=0:00:03.67    \nframe=    0 fps=0.0 q=0.0 size=       0KiB time=N/A bitrate=N/A speed=N/A elapsed=0:00:04.24    \nframe=    0 fps=0.0 q=0.0 size=       0KiB time=N/A bitrate=N/A speed=N/A elapsed=0:00:04.80    \nframe=    0 fps=0.0 q=0.0 size=       0KiB time=N/A bitrate=N/A speed=N/A elapsed=0:00:05.34    \nframe=    1 fps=0.2 q=7.0 size=       1KiB time=00:00:00.00 bitrate=N/A speed=   0x elapsed=0:00:05.90    \nframe=    1 fps=0.2 q=7.0 size=       1KiB time=00:00:00.00 bitrate=N/A speed=   0x elapsed=0:00:06.43    \nframe=    1 fps=0.1 q=7.0 size=       1KiB time=00:00:00.00 bitrate=N/A speed=   0x elapsed=0:00:06.97    \nframe=    1 fps=0.1 q=7.0 size=       1KiB time=00:00:00.00 bitrate=N/A speed=   0x elapsed=0:00:07.55    \nframe=    4 fps=0.5 q=35.0 size=       1KiB time=00:00:00.05 bitrate= 113.9kbits/s speed=0.00618x elapsed=0:00:08.08    \nframe=    5 fps=0.6 q=31.0 size=       1KiB time=00:00:00.06 bitrate=  85.4kbits/s speed=0.00774x elapsed=0:00:08.61    \nframe=    7 fps=0.8 q=31.0 size=       1KiB time=00:00:00.10 bitrate=  57.0kbits/s speed=0.011x elapsed=0:00:09.11    \nframe=    8 fps=0.8 q=35.0 size=       1KiB time=00:00:00.11 bitrate=  48.8kbits/s speed=0.0121x elapsed=0:00:09.63    \nframe=    9 fps=0.9 q=27.0 size=       1KiB time=00:00:00.13 bitrate=  42.7kbits/s speed=0.0131x elapsed=0:00:10.15    \nframe=   11 fps=1.0 q=31.0 size=       1KiB time=00:00:00.16 bitrate=  34.2kbits/s speed=0.0156x elapsed=0:00:10.68    \nframe=   13 fps=1.2 q=28.0 size=       1KiB time=00:00:00.20 bitrate=  28.5kbits/s speed=0.0178x elapsed=0:00:11.23    \nframe=   16 fps=1.4 q=36.0 size=       1KiB time=00:00:00.25 bitrate=  22.8kbits/s speed=0.0212x elapsed=0:00:11.78    \nframe=   18 fps=1.5 q=30.0 size=       1KiB time=00:00:00.28 bitrate=  20.1kbits/s speed=0.023x elapsed=0:00:12.33    \nframe=   19 fps=1.5 q=31.0 size=       1KiB time=00:00:00.30 bitrate=  19.0kbits/s speed=0.0233x elapsed=0:00:12.86    \nframe=   20 fps=1.5 q=29.0 size=       1KiB time=00:00:00.31 bitrate=  18.0kbits/s speed=0.0237x elapsed=0:00:13.38    \nframe=   22 fps=1.6 q=29.0 size=       1KiB time=00:00:00.35 bitrate=  16.3kbits/s speed=0.0252x elapsed=0:00:13.90    \nframe=   23 fps=1.6 q=31.0 size=       1KiB time=00:00:00.36 bitrate=  15.5kbits/s speed=0.0254x elapsed=0:00:14.43    \nframe=   25 fps=1.7 q=27.0 size=       1KiB time=00:00:00.40 bitrate=  14.2kbits/s speed=0.0267x elapsed=0:00:14.96    \nframe=   27 fps=1.7 q=31.0 size=       1KiB time=00:00:00.43 bitrate=  13.1kbits/s speed=0.028x elapsed=0:00:15.49    \nframe=   30 fps=1.9 q=30.0 size=       1KiB time=00:00:00.48 bitrate=  11.8kbits/s speed=0.03x elapsed=0:00:16.09    \nframe=   33 fps=2.0 q=19.0 size=       1KiB time=00:00:00.53 bitrate=  10.7kbits/s speed=0.0319x elapsed=0:00:16.69    \nframe=   35 fps=2.0 q=32.0 size=       1KiB time=00:00:00.56 bitrate=  10.1kbits/s speed=0.0329x elapsed=0:00:17.21    \nframe=   36 fps=2.0 q=32.0 size=       1KiB time=00:00:00.58 bitrate=   9.8kbits/s speed=0.0328x elapsed=0:00:17.76    \nframe=   38 fps=2.1 q=31.0 size=       1KiB time=00:00:00.61 bitrate=   9.2kbits/s speed=0.0337x elapsed=0:00:18.32    \nframe=   39 fps=2.1 q=32.0 size=       1KiB time=00:00:00.63 bitrate=   9.0kbits/s speed=0.0336x elapsed=0:00:18.87    \nframe=   41 fps=2.1 q=27.0 size=       1KiB time=00:00:00.66 bitrate=   8.5kbits/s speed=0.0341x elapsed=0:00:19.52    \nframe=   42 fps=2.1 q=29.0 size=       1KiB time=00:00:00.68 bitrate=   8.3kbits/s speed=0.0339x elapsed=0:00:20.15    \nframe=   43 fps=2.1 q=32.0 size=       1KiB time=00:00:00.70 bitrate=   8.1kbits/s speed=0.0336x elapsed=0:00:20.83    \nframe=   46 fps=2.1 q=30.0 size=       1KiB time=00:00:00.73 bitrate=   7.8kbits/s speed=0.0341x elapsed=0:00:21.48    \nframe=   48 fps=2.2 q=30.0 size=       1KiB time=00:00:00.78 bitrate=   7.3kbits/s speed=0.0355x elapsed=0:00:22.08    \nframe=   49 fps=2.2 q=17.0 size=       1KiB time=00:00:00.80 bitrate=   7.1kbits/s speed=0.0353x elapsed=0:00:22.66    \nframe=   50 fps=2.1 q=32.0 size=       1KiB time=00:00:00.81 bitrate=   7.0kbits/s speed=0.0351x elapsed=0:00:23.26    \nframe=   52 fps=2.2 q=32.0 size=       1KiB time=00:00:00.83 bitrate=   6.8kbits/s speed=0.0349x elapsed=0:00:23.88    \nframe=   53 fps=2.2 q=31.0 size=       1KiB time=00:00:00.86 bitrate=   6.6kbits/s speed=0.0354x elapsed=0:00:24.47    \nframe=   54 fps=2.2 q=31.0 size=       1KiB time=00:00:00.88 bitrate=   6.4kbits/s speed=0.0352x elapsed=0:00:25.06    \nframe=   55 fps=2.1 q=34.0 size=       1KiB time=00:00:00.90 bitrate=   6.3kbits/s speed=0.0351x elapsed=0:00:25.61    \nframe=   57 fps=2.2 q=28.0 size=       1KiB time=00:00:00.93 bitrate=   6.1kbits/s speed=0.0356x elapsed=0:00:26.24    \nframe=   59 fps=2.2 q=34.0 size=       1KiB time=00:00:00.95 bitrate=   6.0kbits/s speed=0.0354x elapsed=0:00:26.86    \nframe=   61 fps=2.2 q=31.0 size=       1KiB time=00:00:01.00 bitrate=   5.7kbits/s speed=0.0364x elapsed=0:00:27.47    \nframe=   63 fps=2.2 q=33.0 size=       1KiB time=00:00:01.03 bitrate=   5.5kbits/s speed=0.0368x elapsed=0:00:28.07    \nframe=   65 fps=2.3 q=14.0 size=       1KiB time=00:00:01.06 bitrate=   5.3kbits/s speed=0.0373x elapsed=0:00:28.60    \nframe=   67 fps=2.3 q=33.0 size=       1KiB time=00:00:01.10 bitrate=   5.2kbits/s speed=0.0378x elapsed=0:00:29.13    \nframe=   69 fps=2.3 q=32.0 size=       1KiB time=00:00:01.13 bitrate=   5.0kbits/s speed=0.0382x elapsed=0:00:29.68    \nframe=   70 fps=2.3 q=31.0 size=       1KiB time=00:00:01.15 bitrate=   5.0kbits/s speed=0.0381x elapsed=0:00:30.20    \nframe=   72 fps=2.3 q=32.0 size=       1KiB time=00:00:01.16 bitrate=   4.9kbits/s speed=0.038x elapsed=0:00:30.73    \nframe=   75 fps=2.4 q=33.0 size=       1KiB time=00:00:01.21 bitrate=   4.7kbits/s speed=0.0389x elapsed=0:00:31.27    \nframe=   77 fps=2.4 q=30.0 size=       1KiB time=00:00:01.26 bitrate=   4.5kbits/s speed=0.0397x elapsed=0:00:31.86    \nframe=   81 fps=2.5 q=15.0 size=       1KiB time=00:00:01.33 bitrate=   4.3kbits/s speed=0.0411x elapsed=0:00:32.40    \nframe=   83 fps=2.5 q=33.0 size=       1KiB time=00:00:01.36 bitrate=   4.2kbits/s speed=0.0415x elapsed=0:00:32.93    \nframe=   85 fps=2.5 q=31.0 size=       1KiB time=00:00:01.40 bitrate=   4.1kbits/s speed=0.0418x elapsed=0:00:33.46    \nframe=   87 fps=2.6 q=33.0 size=       1KiB time=00:00:01.43 bitrate=   4.0kbits/s speed=0.0421x elapsed=0:00:34.01    \nframe=   89 fps=2.6 q=25.0 size=       1KiB time=00:00:01.46 bitrate=   3.9kbits/s speed=0.0424x elapsed=0:00:34.56    \nframe=   91 fps=2.6 q=33.0 size=       1KiB time=00:00:01.50 bitrate=   3.8kbits/s speed=0.0427x elapsed=0:00:35.09    \nframe=   96 fps=2.7 q=35.0 size=       1KiB time=00:00:01.58 bitrate=   3.6kbits/s speed=0.0444x elapsed=0:00:35.63    \nframe=   98 fps=2.7 q=35.0 size=       1KiB time=00:00:01.61 bitrate=   3.5kbits/s speed=0.0447x elapsed=0:00:36.17    \nframe=  100 fps=2.7 q=36.0 size=       1KiB time=00:00:01.65 bitrate=   3.5kbits/s speed=0.0449x elapsed=0:00:36.73    \nframe=  102 fps=2.7 q=36.0 size=       1KiB time=00:00:01.68 bitrate=   3.4kbits/s speed=0.0452x elapsed=0:00:37.24    \nframe=  103 fps=2.7 q=29.0 size=       1KiB time=00:00:01.70 bitrate=   3.4kbits/s speed=0.045x elapsed=0:00:37.80    \nframe=  105 fps=2.7 q=24.0 size=       1KiB time=00:00:01.73 bitrate=   3.3kbits/s speed=0.0451x elapsed=0:00:38.40    \nframe=  107 fps=2.7 q=31.0 size=       1KiB time=00:00:01.76 bitrate=   3.2kbits/s speed=0.0453x elapsed=0:00:38.96    \nframe=  110 fps=2.8 q=34.0 size=       1KiB time=00:00:01.81 bitrate=   3.1kbits/s speed=0.046x elapsed=0:00:39.52    \nframe=  113 fps=2.8 q=11.0 size=       1KiB time=00:00:01.86 bitrate=   3.1kbits/s speed=0.0466x elapsed=0:00:40.07    \nframe=  115 fps=2.8 q=31.0 size=       1KiB time=00:00:01.88 bitrate=   3.0kbits/s speed=0.0464x elapsed=0:00:40.61    \nframe=  116 fps=2.8 q=34.0 size=       1KiB time=00:00:01.91 bitrate=   3.0kbits/s speed=0.0466x elapsed=0:00:41.14    \nframe=  118 fps=2.8 q=34.0 size=       1KiB time=00:00:01.95 bitrate=   2.9kbits/s speed=0.0468x elapsed=0:00:41.66    \nframe=  119 fps=2.8 q=31.0 size=       1KiB time=00:00:01.96 bitrate=   2.9kbits/s speed=0.0466x elapsed=0:00:42.24    \nframe=  122 fps=2.8 q=33.0 size=       1KiB time=00:00:02.01 bitrate=   2.8kbits/s speed=0.0471x elapsed=0:00:42.84    \nframe=  123 fps=2.8 q=31.0 size=       1KiB time=00:00:02.03 bitrate=   2.8kbits/s speed=0.0469x elapsed=0:00:43.36    \nframe=  127 fps=2.9 q=32.0 size=       1KiB time=00:00:02.10 bitrate=   2.7kbits/s speed=0.0478x elapsed=0:00:43.94    \nframe=  129 fps=2.9 q=9.0 size=       1KiB time=00:00:02.13 bitrate=   2.7kbits/s speed=0.0479x elapsed=0:00:44.50    \nframe=  131 fps=2.9 q=32.0 size=       1KiB time=00:00:02.16 bitrate=   2.6kbits/s speed=0.0481x elapsed=0:00:45.07    \nframe=  133 fps=2.9 q=31.0 size=       1KiB time=00:00:02.20 bitrate=   2.6kbits/s speed=0.0482x elapsed=0:00:45.60    \nframe=  134 fps=2.9 q=32.0 size=       1KiB time=00:00:02.21 bitrate=   2.6kbits/s speed=0.048x elapsed=0:00:46.15    \nframe=  135 fps=2.9 q=32.0 size=       1KiB time=00:00:02.23 bitrate=   2.6kbits/s speed=0.0478x elapsed=0:00:46.70    \nframe=  138 fps=2.9 q=32.0 size=       1KiB time=00:00:02.28 bitrate=   2.5kbits/s speed=0.0483x elapsed=0:00:47.29    \nframe=  139 fps=2.9 q=32.0 size=       1KiB time=00:00:02.30 bitrate=   2.5kbits/s speed=0.0481x elapsed=0:00:47.84    \nframe=  142 fps=2.9 q=32.0 size=       1KiB time=00:00:02.35 bitrate=   2.4kbits/s speed=0.0486x elapsed=0:00:48.37    \nframe=  145 fps=3.0 q=11.0 size=       1KiB time=00:00:02.40 bitrate=   2.4kbits/s speed=0.0491x elapsed=0:00:48.88    \nframe=  147 fps=3.0 q=32.0 size=       1KiB time=00:00:02.43 bitrate=   2.3kbits/s speed=0.0493x elapsed=0:00:49.39    \nframe=  148 fps=3.0 q=32.0 size=       1KiB time=00:00:02.45 bitrate=   2.3kbits/s speed=0.0491x elapsed=0:00:49.91    \nframe=  150 fps=3.0 q=32.0 size=       1KiB time=00:00:02.48 bitrate=   2.3kbits/s speed=0.0492x elapsed=0:00:50.46    \nframe=  151 fps=3.0 q=32.0 size=       1KiB time=00:00:02.50 bitrate=   2.3kbits/s speed=0.049x elapsed=0:00:51.04    \nframe=  154 fps=3.0 q=33.0 size=       1KiB time=00:00:02.55 bitrate=   2.2kbits/s speed=0.0494x elapsed=0:00:51.59    \nframe=  157 fps=3.0 q=30.0 size=       1KiB time=00:00:02.60 bitrate=   2.2kbits/s speed=0.0498x elapsed=0:00:52.16    \nframe=  160 fps=3.0 q=36.0 size=       1KiB time=00:00:02.65 bitrate=   2.1kbits/s speed=0.0501x elapsed=0:00:52.84    \nframe=  162 fps=3.0 q=36.0 size=       1KiB time=00:00:02.68 bitrate=   2.1kbits/s speed=0.0502x elapsed=0:00:53.43    \nframe=  164 fps=3.0 q=36.0 size=       1KiB time=00:00:02.71 bitrate=   2.1kbits/s speed=0.0503x elapsed=0:00:54.00    \nframe=  166 fps=3.0 q=36.0 size=       1KiB time=00:00:02.75 bitrate=   2.1kbits/s speed=0.0504x elapsed=0:00:54.58    \nframe=  167 fps=3.0 q=35.0 size=       1KiB time=00:00:02.76 bitrate=   2.1kbits/s speed=0.0501x elapsed=0:00:55.18    \nframe=  169 fps=3.0 q=28.0 size=       1KiB time=00:00:02.80 bitrate=   2.0kbits/s speed=0.0501x elapsed=0:00:55.85    \nframe=  171 fps=3.0 q=36.0 size=       1KiB time=00:00:02.83 bitrate=   2.0kbits/s speed=0.0502x elapsed=0:00:56.40    \nframe=  174 fps=3.1 q=39.0 size=       1KiB time=00:00:02.88 bitrate=   2.0kbits/s speed=0.0506x elapsed=0:00:57.03    \nframe=  178 fps=3.1 q=40.0 size=       1KiB time=00:00:02.93 bitrate=   1.9kbits/s speed=0.0509x elapsed=0:00:57.64    \nframe=  180 fps=3.1 q=40.0 size=       1KiB time=00:00:02.96 bitrate=   1.9kbits/s speed=0.0509x elapsed=0:00:58.27    \nframe=  182 fps=3.1 q=40.0 size=       1KiB time=00:00:03.01 bitrate=   1.9kbits/s speed=0.0512x elapsed=0:00:58.86    \nframe=  183 fps=3.1 q=38.0 size=       1KiB time=00:00:03.03 bitrate=   1.9kbits/s speed=0.051x elapsed=0:00:59.44    \nframe=  186 fps=3.1 q=40.0 size=       1KiB time=00:00:03.08 bitrate=   1.8kbits/s speed=0.0514x elapsed=0:00:59.98    \nframe=  189 fps=3.1 q=35.0 size=       1KiB time=00:00:03.13 bitrate=   1.8kbits/s speed=0.0518x elapsed=0:01:00.52    \nframe=  192 fps=3.1 q=35.0 size=       1KiB time=00:00:03.18 bitrate=   1.8kbits/s speed=0.0521x elapsed=0:01:01.04    \nframe=  194 fps=3.2 q=41.0 size=       1KiB time=00:00:03.21 bitrate=   1.8kbits/s speed=0.0522x elapsed=0:01:01.57    \nframe=  196 fps=3.2 q=41.0 size=       1KiB time=00:00:03.23 bitrate=   1.8kbits/s speed=0.0521x elapsed=0:01:02.10    \nframe=  198 fps=3.2 q=41.0 size=       1KiB time=00:00:03.28 bitrate=   1.7kbits/s speed=0.0524x elapsed=0:01:02.71    \nframe=  199 fps=3.1 q=40.0 size=       1KiB time=00:00:03.30 bitrate=   1.7kbits/s speed=0.0521x elapsed=0:01:03.32    \nframe=  202 fps=3.2 q=40.0 size=       1KiB time=00:00:03.35 bitrate=   1.7kbits/s speed=0.0524x elapsed=0:01:03.89    \nframe=  205 fps=3.2 q=35.0 size=       1KiB time=00:00:03.40 bitrate=   1.7kbits/s speed=0.0527x elapsed=0:01:04.56    \nframe=  209 fps=3.2 q=27.0 size=       1KiB time=00:00:03.46 bitrate=   1.6kbits/s speed=0.0533x elapsed=0:01:05.09    \nframe=  211 fps=3.2 q=36.0 size=       1KiB time=00:00:03.50 bitrate=   1.6kbits/s speed=0.0533x elapsed=0:01:05.61    \nframe=  213 fps=3.2 q=33.0 size=       1KiB time=00:00:03.53 bitrate=   1.6kbits/s speed=0.0534x elapsed=0:01:06.14    \nframe=  217 fps=3.3 q=35.0 size=       1KiB time=00:00:03.60 bitrate=   1.6kbits/s speed=0.054x elapsed=0:01:06.66    \nframe=  217 fps=3.2 q=35.0 size=       1KiB time=00:00:03.60 bitrate=   1.6kbits/s speed=0.0536x elapsed=0:01:07.21    \nframe=  221 fps=3.3 q=33.0 size=       1KiB time=00:00:03.66 bitrate=   1.6kbits/s speed=0.0541x elapsed=0:01:07.75    \nframe=  223 fps=3.3 q=35.0 size=       1KiB time=00:00:03.70 bitrate=   1.5kbits/s speed=0.0541x elapsed=0:01:08.34    \nframe=  227 fps=3.3 q=36.0 size=       1KiB time=00:00:03.76 bitrate=   1.5kbits/s speed=0.0547x elapsed=0:01:08.90    \nframe=  229 fps=3.3 q=35.0 size=       1KiB time=00:00:03.80 bitrate=   1.5kbits/s speed=0.0547x elapsed=0:01:09.46    \nframe=  233 fps=3.3 q=33.0 size=       1KiB time=00:00:03.86 bitrate=   1.5kbits/s speed=0.0552x elapsed=0:01:10.04    \nframe=  233 fps=3.3 q=33.0 size=       1KiB time=00:00:03.86 bitrate=   1.5kbits/s speed=0.0548x elapsed=0:01:10.60    \nframe=  235 fps=3.3 q=33.0 size=       1KiB time=00:00:03.90 bitrate=   1.5kbits/s speed=0.0547x elapsed=0:01:11.25    \nframe=  237 fps=3.3 q=29.0 size=       1KiB time=00:00:03.93 bitrate=   1.4kbits/s speed=0.0548x elapsed=0:01:11.80    \nframe=  239 fps=3.3 q=32.0 size=       1KiB time=00:00:03.96 bitrate=   1.4kbits/s speed=0.0548x elapsed=0:01:12.36    \nframe=  241 fps=3.3 q=26.0 size=       1KiB time=00:00:04.00 bitrate=   1.4kbits/s speed=0.0548x elapsed=0:01:12.94    \nframe=  245 fps=3.3 q=32.0 size=       1KiB time=00:00:04.06 bitrate=   1.4kbits/s speed=0.0554x elapsed=0:01:13.46    \nframe=  249 fps=3.4 q=28.0 size=       1KiB time=00:00:04.13 bitrate=   1.4kbits/s speed=0.0558x elapsed=0:01:14.01    \nframe=  249 fps=3.3 q=28.0 size=       1KiB time=00:00:04.13 bitrate=   1.4kbits/s speed=0.0554x elapsed=0:01:14.54    \nframe=  249 fps=3.3 q=28.0 size=       1KiB time=00:00:04.13 bitrate=   1.4kbits/s speed=0.055x elapsed=0:01:15.09    \nframe=  253 fps=3.3 q=28.0 size=       1KiB time=00:00:04.20 bitrate=   1.4kbits/s speed=0.0556x elapsed=0:01:15.60    \nframe=  255 fps=3.3 q=31.0 size=       1KiB time=00:00:04.23 bitrate=   1.3kbits/s speed=0.0555x elapsed=0:01:16.20    \nframe=  257 fps=3.3 q=20.0 size=       1KiB time=00:00:04.26 bitrate=   1.3kbits/s speed=0.0555x elapsed=0:01:16.83    \nframe=  259 fps=3.3 q=31.0 size=       1KiB time=00:00:04.30 bitrate=   1.3kbits/s speed=0.0555x elapsed=0:01:17.45    \nframe=  261 fps=3.3 q=27.0 size=       1KiB time=00:00:04.33 bitrate=   1.3kbits/s speed=0.0556x elapsed=0:01:17.98    \nframe=  265 fps=3.4 q=27.0 size=       1KiB time=00:00:04.40 bitrate=   1.3kbits/s speed=0.056x elapsed=0:01:18.52    \nframe=  265 fps=3.4 q=27.0 size=       1KiB time=00:00:04.40 bitrate=   1.3kbits/s speed=0.0556x elapsed=0:01:19.08    \nframe=  269 fps=3.4 q=32.0 size=       1KiB time=00:00:04.46 bitrate=   1.3kbits/s speed=0.0561x elapsed=0:01:19.68    \nframe=  269 fps=3.4 q=32.0 size=       1KiB time=00:00:04.46 bitrate=   1.3kbits/s speed=0.0557x elapsed=0:01:20.22    \nframe=  275 fps=3.4 q=35.0 size=       1KiB time=00:00:04.56 bitrate=   1.2kbits/s speed=0.0565x elapsed=0:01:20.75    \nframe=  277 fps=3.4 q=35.0 size=       1KiB time=00:00:04.60 bitrate=   1.2kbits/s speed=0.0566x elapsed=0:01:21.33    \nframe=  281 fps=3.4 q=32.0 size=       1KiB time=00:00:04.66 bitrate=   1.2kbits/s speed=0.057x elapsed=0:01:21.89    \nframe=  281 fps=3.4 q=32.0 size=       1KiB time=00:00:04.66 bitrate=   1.2kbits/s speed=0.0566x elapsed=0:01:22.42    \nframe=  285 fps=3.4 q=35.0 size=       1KiB time=00:00:04.73 bitrate=   1.2kbits/s speed=0.057x elapsed=0:01:23.00    \nframe=  293 fps=3.5 q=32.0 size=       1KiB time=00:00:04.86 bitrate=   1.2kbits/s speed=0.0582x elapsed=0:01:23.57    \n[out#0/matroska @ 000002910dca9100] video:2487KiB audio:0KiB subtitle:0KiB other streams:0KiB global headers:0KiB muxing overhead: 0.084556%\nframe=  300 fps=3.6 q=35.0 Lsize=    2489KiB time=00:00:04.98 bitrate=4091.1kbits/s speed=0.0594x elapsed=0:01:23.83    \n",
  "seconds": 84.49676656723022,
  "probe_out": {}
}